<?xml version="1.0" encoding="UTF-8"?>
<svg width="512px" height="448px" viewBox="0 0 512 448" version="1.1" xmlns="http://www.w3.org/2000/svg" xmlns:xlink="http://www.w3.org/1999/xlink">
    <!-- Generator: Sketch 52.2 (67145) - http://www.bohemiancoding.com/sketch -->
    <title>shop</title>
    <desc>Created with Sketch.</desc>
    <g id="Page-1" stroke="none" stroke-width="1" fill="none" fill-rule="evenodd">
        <g id="shop" fill="#FC8B56">
            <rect id="Rectangle" x="177" y="368.69" width="15" height="15"></rect>
            <rect id="Rectangle" x="208" y="368.69" width="15" height="15"></rect>
            <rect id="Rectangle" x="240" y="368.69" width="15" height="15"></rect>
            <path d="M216,32.188 C203.042,32.188 192.5,42.73 192.5,55.688 C192.5,68.646 203.042,79.188 216,79.188 C228.958,79.188 239.5,68.646 239.5,55.688 C239.5,42.73 228.958,32.188 216,32.188 Z M216,64.188 C211.314,64.188 207.5,60.375 207.5,55.688 C207.5,51.001 211.314,47.188 216,47.188 C220.686,47.188 224.5,51.001 224.5,55.688 C224.5,60.375 220.686,64.188 216,64.188 Z" id="Shape" fill-rule="nonzero"></path>
            <path d="M471,432.688 L471,392.688 L391,392.688 L391,160.688 L343,160.688 L343,112.688 L247.331,112.688 C259.552,92.688 271.5,70.586 271.5,55.938 C271.5,25.335 246.602,0.313 216,0.313 C185.398,0.313 160.25,25.147 160.25,55.751 C160.25,70.332 172,92.713 184,111.923 L184,176.688 L151,176.688 L151,127.688 L168,127.688 L168,112.688 L88,112.688 L88,160.688 L40,160.688 L40,432.688 L0,432.688 L0,447.688 L512,447.688 L512,432.688 L471,432.688 Z M295,127.688 L328,127.688 L328,176.688 L295,176.688 L295,127.688 Z M328,191.688 C328,200.786 320.598,208.188 311.5,208.188 C302.402,208.188 295,200.786 295,191.688 L328,191.688 Z M280,127.688 L280,176.688 L247,176.688 L247,151.688 L232,151.688 L232,176.688 L199,176.688 L199,134.093 C205,141.378 208.51,146.601 209.838,148.303 L215.875,155.876 L221.85,148.553 C223.568,146.352 229.869,137.688 237.368,127.688 L280,127.688 Z M280,191.688 C280,200.786 272.598,208.188 263.5,208.188 C254.402,208.188 247,200.786 247,191.688 L280,191.688 Z M232,191.688 C232,200.786 224.598,208.188 215.5,208.188 C206.402,208.188 199,200.786 199,191.688 L232,191.688 Z M175.5,55.688 C175.5,33.357 193.668,15.188 216,15.188 C238.332,15.188 256.5,33.357 256.5,55.688 C256.5,61.046 253.544,74.64 233.749,105.484 C227.186,115.711 220.563,125.005 216,131.21 C211.437,125.004 204.814,115.711 198.251,105.484 C178.456,74.64 175.5,61.044 175.5,55.688 Z M184,191.688 C184,200.786 176.598,208.188 167.5,208.188 C158.402,208.188 151,200.786 151,191.688 L184,191.688 Z M143.75,212.057 C149.533,218.86 158.268,223.188 167.875,223.188 C177.482,223.188 186.155,218.86 191.938,212.057 C197.721,218.86 206.362,223.188 215.969,223.188 C225.576,223.188 234.202,218.86 239.985,212.057 C245.767,218.86 254.386,223.188 263.993,223.188 C273.6,223.188 281.964,218.86 287.747,212.057 C291.974,217.03 298.001,220.676 304.001,222.279 L304.001,336.688 L247.001,336.688 L247.001,256.688 L184.001,256.688 L184.001,336.688 L127.001,336.688 L127.001,222.278 C134,220.674 139.523,217.029 143.75,212.057 Z M232,271.688 L232,336.688 L199,336.688 L199,271.688 L232,271.688 Z M103,127.688 L136,127.688 L136,176.688 L103,176.688 L103,127.688 Z M136,191.688 C136,200.786 128.598,208.188 119.5,208.188 C110.402,208.188 103,200.786 103,191.688 L136,191.688 Z M55,175.687 L88,175.688 L88,191.688 C88,206.473 99,218.904 112,222.279 L112,336.688 L88,336.688 L88,351.688 L344,351.688 L344,336.688 L319,336.688 L319,222.278 C333,218.904 343,206.472 343,191.687 L343,175.687 L376,175.687 L376,392.687 L55,392.687 L55,175.687 Z M168,432.688 L55,432.688 L55,407.688 L168,407.688 L168,432.688 Z M456,432.688 L183,432.688 L183,407.688 L280,407.688 L280,415.688 L360,415.688 L360,407.688 L456,407.688 L456,432.688 Z" id="Shape" fill-rule="nonzero"></path>
        </g>
    </g>
</svg>